<svg width="84" height="36" viewBox="0 0 84 36" fill="none" xmlns="http://www.w3.org/2000/svg">
<path d="M81.4959 35.8811H2.5041C1.12292 35.8811 0 34.7582 0 33.377V2.5041C0 1.12456 1.12292 0 2.5041 0H81.4959C82.8771 0 84 1.12292 84 2.5041V33.377C84 34.7566 82.8771 35.8811 81.4959 35.8811ZM2.5041 1.31906C1.85029 1.31906 1.31743 1.85192 1.31743 2.50573V33.377C1.31743 34.0309 1.85029 34.5637 2.5041 34.5637H81.4959C82.1497 34.5637 82.6826 34.0309 82.6826 33.377V2.5041C82.6826 1.85029 82.1497 1.31743 81.4959 1.31743H2.5041V1.31906Z" fill="#F79420"/>
<path d="M5.65527 25.7431V10.1759C5.65527 7.22227 6.97597 5.45044 10.2418 5.45044C13.5435 5.45044 14.8626 7.22227 14.8626 10.1759V12.4005H11.8044V9.51714C11.8044 8.68353 11.3876 8.23077 10.2401 8.23077C9.12865 8.23077 8.67588 8.6819 8.67588 9.51714V26.4051C8.67588 27.2387 9.12701 27.6915 10.2401 27.6915C11.3876 27.6915 11.8044 27.2403 11.8044 26.4051V23.5218H14.8626V25.7464C14.8626 28.7 13.5419 30.4718 10.2418 30.4718C6.97434 30.4685 5.65527 28.6967 5.65527 25.7431Z" fill="#1471B9"/>
<path d="M19.31 5.7981H22.8537L26.2584 30.1215H23.2705L22.6804 25.2915H19.4833L18.8932 30.1215H15.9053L19.31 5.7981ZM22.3682 22.5128L21.0818 11.3931L19.7955 22.5128H22.3682Z" fill="#1471B9"/>
<path d="M27.9636 5.7981H33.6975C35.5739 5.7981 36.8243 7.01419 36.8243 8.8563V15.7703C36.8243 17.1254 36.4418 18.2025 34.9822 18.5147C36.7884 19.0361 37.0319 20.079 37.0319 21.6775V27.1679C37.0319 28.2107 37.2754 29.2176 37.7266 30.1215H34.9462C34.0783 29.0443 33.9737 27.9329 33.9737 25.8129V21.4699C33.9737 20.0446 33.2447 19.5592 32.0973 19.5592H31.0201V30.1231H27.9619V5.7981H27.9636ZM33.0714 16.8132C33.5929 16.8132 33.7661 16.6399 33.7661 16.1185V9.2731C33.7661 8.75169 33.5929 8.57843 33.0714 8.57843H31.0217V16.8132H33.0714Z" fill="#1471B9"/>
<path d="M39.2568 26.2286V23.1703H42.2807V26.4018C42.2807 27.2354 42.7318 27.6882 43.6701 27.6882C44.6083 27.6882 45.0594 27.2371 45.0594 26.4018V23.5185C45.0594 22.4757 44.7472 21.8513 44.1555 21.1207L40.5073 16.6388C39.6736 15.596 39.2568 14.5188 39.2568 13.0951V9.6904C39.2568 7.25822 40.7851 5.45044 43.7044 5.45044C46.6237 5.45044 48.1176 7.25659 48.1176 9.6904V12.7486H45.0937V9.51714C45.0937 8.68353 44.6426 8.23077 43.7044 8.23077C42.7662 8.23077 42.315 8.6819 42.315 9.51714V12.4005C42.315 13.4433 42.6272 14.0677 43.2189 14.7983L46.8329 19.2802C47.7008 20.323 48.0833 21.4002 48.0833 22.8238V26.2286C48.0833 28.6607 46.5893 30.4685 43.6701 30.4685C40.7508 30.4685 39.2568 28.6607 39.2568 26.2286Z" fill="#1471B9"/>
<path d="M58.6107 27.4447L63.5094 17.3335C64.969 14.4143 65.1766 13.0593 65.1766 11.531C65.1766 9.30638 64.7598 8.1949 63.5437 8.1949C62.3619 8.1949 61.8405 9.37667 61.8405 11.531H58.8166C58.8166 7.01314 61.2145 5.45053 63.5077 5.45053C66.3567 5.45053 68.1988 7.15371 68.1988 11.392C68.1988 13.5807 67.4698 15.5274 66.1491 18.2374L61.7359 27.3761H68.2332V30.1205H58.6074V27.4447H58.6107Z" fill="#1471B9"/>
<path d="M73.8658 24.2143H68.1318V21.6089L74.0733 5.7981H76.888V21.4699H78.3476V24.2143H76.888V30.1215H73.8641V24.2143H73.8658ZM73.8658 21.4699V13.3382L70.9825 21.4699H73.8658Z" fill="#1471B9"/>
<path d="M53.8308 15.6256L51.584 17.8724L53.8308 20.1192L56.0776 17.8724L53.8308 15.6256Z" fill="#F79438"/>
</svg>
